<?xml version="1.0" encoding="utf-8" standalone="no"?>
<!DOCTYPE svg PUBLIC "-//W3C//DTD SVG 1.1//EN"
  "http://www.w3.org/Graphics/SVG/1.1/DTD/svg11.dtd">
<!-- Created with matplotlib (https://matplotlib.org/) -->
<svg height="864pt" version="1.1" viewBox="0 0 1152 864" width="1152pt" xmlns="http://www.w3.org/2000/svg" xmlns:xlink="http://www.w3.org/1999/xlink">
 <metadata>
  <rdf:RDF xmlns:cc="http://creativecommons.org/ns#" xmlns:dc="http://purl.org/dc/elements/1.1/" xmlns:rdf="http://www.w3.org/1999/02/22-rdf-syntax-ns#">
   <cc:Work>
    <dc:type rdf:resource="http://purl.org/dc/dcmitype/StillImage"/>
    <dc:date>2021-05-26T21:58:36.543029</dc:date>
    <dc:format>image/svg+xml</dc:format>
    <dc:creator>
     <cc:Agent>
      <dc:title>Matplotlib v3.3.4, https://matplotlib.org/</dc:title>
     </cc:Agent>
    </dc:creator>
   </cc:Work>
  </rdf:RDF>
 </metadata>
 <defs>
  <style type="text/css">*{stroke-linecap:butt;stroke-linejoin:round;}</style>
 </defs>
 <g id="figure_1">
  <g id="patch_1">
   <path d="M 0 864 
L 1152 864 
L 1152 0 
L 0 0 
z
" style="fill:none;"/>
  </g>
  <g id="axes_1">
   <g id="patch_2">
    <path d="M 144 756 
L 1036.8 756 
L 1036.8 103.68 
L 144 103.68 
z
" style="fill:#ffffff;"/>
   </g>
   <g id="line2d_1">
    <path clip-path="url(#pa648702af6)" d="M 550.285366 365.697138 
L 447.425755 370.511115 
L 419.71961 384.547049 
" style="fill:none;stroke:#1f77b4;stroke-linecap:square;stroke-opacity:0.8;stroke-width:0.95;"/>
   </g>
   <g id="line2d_2">
    <path clip-path="url(#pa648702af6)" d="M 532.361993 403.053794 
L 513.349694 398.984147 
L 508.019225 397.853152 
L 483.895999 393.150341 
L 419.175147 403.508125 
L 396.878506 406.369445 
L 374.581865 407.969271 
L 346.348821 404.083289 
L 329.628536 395.465497 
L 325.562626 389.496358 
" style="fill:none;stroke:#ff7f0e;stroke-linecap:square;stroke-opacity:0.8;stroke-width:0.95;"/>
   </g>
   <g id="line2d_3">
    <path clip-path="url(#pa648702af6)" d="M 754.098968 556.250399 
L 670.629267 573.780816 
" style="fill:none;stroke:#2ca02c;stroke-linecap:square;stroke-opacity:0.8;stroke-width:0.95;"/>
   </g>
   <g id="line2d_4">
    <path clip-path="url(#pa648702af6)" d="M 975.546149 469.908143 
L 909.112873 474.717287 
L 844.831104 480.41576 
L 776.650277 474.828453 
" style="fill:none;stroke:#d62728;stroke-linecap:square;stroke-opacity:0.8;stroke-width:0.95;"/>
   </g>
   <g id="line2d_5">
    <path clip-path="url(#pa648702af6)" d="M 457.621265 625.45857 
L 490.9828 608.585484 
L 509.819466 584.515598 
L 519.409041 574.104648 
L 529.139123 563.548698 
L 629.004188 530.363189 
" style="fill:none;stroke:#9467bd;stroke-linecap:square;stroke-opacity:0.8;stroke-width:0.95;"/>
   </g>
   <g id="line2d_6">
    <path clip-path="url(#pa648702af6)" d="M 723.003102 628.411723 
L 646.927561 655.72476 
L 635.61678 659.190243 
L 624.780208 659.736407 
L 615.410174 658.697246 
L 606.88318 655.178596 
L 596.046609 648.431295 
L 550.671759 604.428837 
L 547.721121 601.562684 
L 519.409041 574.104648 
" style="fill:none;stroke:#8c564b;stroke-linecap:square;stroke-opacity:0.8;stroke-width:0.95;"/>
   </g>
   <g id="line2d_7">
    <path clip-path="url(#pa648702af6)" d="M 723.758325 368.601958 
L 768.509676 396.678658 
" style="fill:none;stroke:#e377c2;stroke-linecap:square;stroke-opacity:0.8;stroke-width:0.95;"/>
   </g>
   <g id="line2d_8">
    <path clip-path="url(#pa648702af6)" d="M 754.169222 542.910463 
L 801.484819 553.853077 
L 874.038913 591.412732 
L 883.927065 602.717845 
L 880.159732 611.108472 
" style="fill:none;stroke:#7f7f7f;stroke-linecap:square;stroke-opacity:0.8;stroke-width:0.95;"/>
   </g>
   <g id="line2d_9">
    <path clip-path="url(#pa648702af6)" d="M 753.493034 492.383036 
L 788.189382 506.38997 
L 877.112495 534.007505 
L 927.90563 561.963372 
L 996.218182 579.23279 
" style="fill:none;stroke:#bcbd22;stroke-linecap:square;stroke-opacity:0.8;stroke-width:0.95;"/>
   </g>
   <g id="line2d_10">
    <path clip-path="url(#pa648702af6)" d="M 620.24887 365.808304 
L 632.841774 363.86048 
L 658.782805 359.699 
L 665.816917 358.572839 
L 726.58602 348.360054 
L 798.542962 339.544096 
" style="fill:none;stroke:#17becf;stroke-linecap:square;stroke-opacity:0.8;stroke-width:0.95;"/>
   </g>
   <g id="line2d_11">
    <path clip-path="url(#pa648702af6)" d="M 658.782805 359.699 
L 667.696192 360.941161 
L 723.758325 368.601958 
L 770.397734 362.584486 
L 788.768971 362.217155 
L 809.493695 365.32014 
L 881.573579 389.385192 
L 916.902207 401.420135 
L 930.092264 409.805929 
L 946.110016 425.306355 
L 953.179255 432.416154 
L 964.015826 444.451097 
L 975.546149 469.908143 
" style="fill:none;stroke:#1f77b4;stroke-linecap:square;stroke-opacity:0.8;stroke-width:0.95;"/>
   </g>
   <g id="line2d_12">
    <path clip-path="url(#pa648702af6)" d="M 682.660145 586.332923 
L 670.629267 573.780816 
L 644.134992 546.148781 
L 629.004188 530.363189 
" style="fill:none;stroke:#ff7f0e;stroke-linecap:square;stroke-opacity:0.8;stroke-width:0.95;"/>
   </g>
   <g id="line2d_13">
    <path clip-path="url(#pa648702af6)" d="M 953.179255 432.416154 
L 914.548722 439.525954 
L 890.996303 448.279079 
" style="fill:none;stroke:#2ca02c;stroke-linecap:square;stroke-opacity:0.8;stroke-width:0.95;"/>
   </g>
   <g id="line2d_14">
    <path clip-path="url(#pa648702af6)" d="M 827.399504 726.349091 
L 755.275711 674.323338 
L 737.484063 649.006458 
L 723.003102 628.411723 
" style="fill:none;stroke:#d62728;stroke-linecap:square;stroke-opacity:0.8;stroke-width:0.95;"/>
   </g>
   <g id="line2d_15">
    <path clip-path="url(#pa648702af6)" d="M 564.063795 577.555631 
L 577.71928 592.872392 
L 576.779642 595.608046 
L 565.003432 599.252362 
L 547.721121 601.562684 
" style="fill:none;stroke:#9467bd;stroke-linecap:square;stroke-opacity:0.8;stroke-width:0.95;"/>
   </g>
   <g id="line2d_16">
    <path clip-path="url(#pa648702af6)" d="M 849.063865 638.822674 
L 895.703274 618.948101 
L 901.428918 614.844621 
" style="fill:none;stroke:#8c564b;stroke-linecap:square;stroke-opacity:0.8;stroke-width:0.95;"/>
   </g>
   <g id="line2d_17">
    <path clip-path="url(#pa648702af6)" d="M 419.71961 384.547049 
L 411.429721 387.195703 
L 382.221912 390.298688 
L 351.126045 390.47752 
L 330.568174 389.597858 
L 325.562626 389.496358 
" style="fill:none;stroke:#e377c2;stroke-linecap:square;stroke-opacity:0.8;stroke-width:0.95;"/>
   </g>
   <g id="line2d_18">
    <path clip-path="url(#pa648702af6)" d="M 776.650277 474.828453 
L 732.987852 483.223913 
" style="fill:none;stroke:#7f7f7f;stroke-linecap:square;stroke-opacity:0.8;stroke-width:0.95;"/>
   </g>
   <g id="line2d_19">
    <path clip-path="url(#pa648702af6)" d="M 776.650277 474.828453 
L 784.053219 472.527797 
L 786.880914 467.423821 
L 786.415486 461.590016 
L 774.165067 454.112885 
L 741.514846 440.478116 
L 679.006973 414.36374 
L 666.756554 412.179084 
L 620.117145 396.316159 
L 620.24887 365.808304 
" style="fill:none;stroke:#bcbd22;stroke-linecap:square;stroke-opacity:0.8;stroke-width:0.95;"/>
   </g>
   <g id="line2d_20">
    <path clip-path="url(#pa648702af6)" d="M 546.92199 372.410606 
L 570.184613 371.516444 
L 599.866632 368.964456 
L 620.24887 365.808304 
" style="fill:none;stroke:#17becf;stroke-linecap:square;stroke-opacity:0.8;stroke-width:0.95;"/>
   </g>
   <g id="line2d_21">
    <path clip-path="url(#pa648702af6)" d="M 754.336073 170.547399 
L 712.456325 206.516895 
L 697.378211 216.908512 
L 656.868403 251.911346 
L 643.678346 260.480805 
L 627.186384 269.780094 
L 608.340936 276.527395 
L 584.788518 282.361201 
L 570.913491 286.218183 
" style="fill:none;stroke:#1f77b4;stroke-linecap:square;stroke-opacity:0.8;stroke-width:0.95;"/>
   </g>
   <g id="line2d_22">
    <path clip-path="url(#pa648702af6)" d="M 570.913491 286.218183 
L 552.823267 289.161669 
L 502.346271 294.212478 
L 472.198824 297.494296 
L 448.128288 295.981469 
L 362.392918 283.584028 
L 282.778367 265.898946 
L 232.837053 259.33531 
L 190.307462 245.014212 
L 184.581818 243.206554 
" style="fill:none;stroke:#ff7f0e;stroke-linecap:square;stroke-opacity:0.8;stroke-width:0.95;"/>
   </g>
   <g id="line2d_23">
    <path clip-path="url(#pa648702af6)" d="M 753.888208 521.392565 
L 731.17883 526.515874 
L 644.134992 546.148781 
" style="fill:none;stroke:#2ca02c;stroke-linecap:square;stroke-opacity:0.8;stroke-width:0.95;"/>
   </g>
   <g id="line2d_24">
    <path clip-path="url(#pa648702af6)" d="M 647.61253 499.164171 
L 596.090517 494.408193 
L 581.960822 490.21288 
L 570.658823 484.200242 
L 566.89149 477.45294 
L 571.598461 444.813596 
L 583.664465 436.543801 
L 595.554836 431.396326 
L 597.723906 430.647163 
" style="fill:none;stroke:#d62728;stroke-linecap:square;stroke-opacity:0.8;stroke-width:0.95;"/>
   </g>
   <g id="line2d_25">
    <path clip-path="url(#pa648702af6)" d="M 629.004188 530.363189 
L 632.912028 523.80922 
L 647.61253 499.164171 
L 668.10893 469.226646 
L 676.706178 464.306336 
L 678.585454 463.218841 
" style="fill:none;stroke:#9467bd;stroke-linecap:square;stroke-opacity:0.8;stroke-width:0.95;"/>
   </g>
   <g id="line2d_26">
    <path clip-path="url(#pa648702af6)" d="M 741.514846 440.478116 
L 811.381752 418.742719 
L 881.573579 389.385192 
" style="fill:none;stroke:#8c564b;stroke-linecap:square;stroke-opacity:0.8;stroke-width:0.95;"/>
   </g>
   <g id="line2d_27">
    <path clip-path="url(#pa648702af6)" d="M 753.493034 492.383036 
L 753.888208 521.392565 
L 754.169222 542.910463 
L 754.098968 556.250399 
L 759.086953 568.440008 
L 769.923524 579.015291 
L 782.648153 584.849097 
L 807.614419 591.958896 
L 880.159732 611.108472 
L 901.428918 614.844621 
L 922.557598 615.584117 
L 933.394169 614.936454 
L 949.411921 611.108472 
L 960.239711 605.453499 
L 965.895102 597.976368 
L 963.067406 589.406908 
L 958.360435 582.113443 
L 941.684058 571.600993 
L 927.90563 561.963372 
" style="fill:none;stroke:#e377c2;stroke-linecap:square;stroke-opacity:0.8;stroke-width:0.95;"/>
   </g>
   <g id="line2d_28">
    <path clip-path="url(#pa648702af6)" d="M 500.466996 625.511737 
L 550.671759 604.428837 
" style="fill:none;stroke:#7f7f7f;stroke-linecap:square;stroke-opacity:0.8;stroke-width:0.95;"/>
   </g>
   <g id="line2d_29">
    <path clip-path="url(#pa648702af6)" d="M 753.493034 492.383036 
L 732.987852 483.223913 
L 678.585454 463.218841 
L 597.723906 430.647163 
L 538.324742 405.639615 
L 532.361993 403.053794 
" style="fill:none;stroke:#bcbd22;stroke-linecap:square;stroke-opacity:0.8;stroke-width:0.95;"/>
   </g>
   <g id="line2d_30">
    <path clip-path="url(#pa648702af6)" d="M 419.71961 384.547049 
L 487.918 385.494377 
L 538.640882 387.606534 
" style="fill:none;stroke:#17becf;stroke-linecap:square;stroke-opacity:0.8;stroke-width:0.95;"/>
   </g>
   <g id="line2d_31">
    <path clip-path="url(#pa648702af6)" d="M 538.640882 387.606534 
L 532.361993 403.053794 
" style="fill:none;stroke:#1f77b4;stroke-linecap:square;stroke-opacity:0.8;stroke-width:0.95;"/>
   </g>
   <g id="line2d_32">
    <path clip-path="url(#pa648702af6)" d="M 508.019225 397.853152 
L 483.439352 427.790676 
" style="fill:none;stroke:#ff7f0e;stroke-linecap:square;stroke-opacity:0.8;stroke-width:0.95;"/>
   </g>
   <g id="line2d_33">
    <path clip-path="url(#pa648702af6)" d="M 527.409136 214.221191 
L 562.82558 247.455033 
L 566.724638 260.127973 
L 569.763093 269.997593 
L 570.913491 286.218183 
L 576.077109 311.791228 
L 575.216506 328.325982 
L 573.741186 331.047136 
L 550.285366 365.697138 
L 546.92199 372.410606 
" style="fill:none;stroke:#2ca02c;stroke-linecap:square;stroke-opacity:0.8;stroke-width:0.95;"/>
   </g>
   <g id="line2d_34">
    <path clip-path="url(#pa648702af6)" d="M 525.828437 262.288463 
L 566.724638 260.127973 
" style="fill:none;stroke:#d62728;stroke-linecap:square;stroke-opacity:0.8;stroke-width:0.95;"/>
   </g>
   <g id="line2d_35">
    <path clip-path="url(#pa648702af6)" d="M 526.776856 235.898588 
L 517.125809 241.911226 
L 525.828437 262.288463 
L 532.432247 277.740556 
" style="fill:none;stroke:#9467bd;stroke-linecap:square;stroke-opacity:0.8;stroke-width:0.95;"/>
   </g>
   <g id="line2d_36">
    <path clip-path="url(#pa648702af6)" d="M 462.003314 324.778333 
L 519.7164 326.237992 
L 575.216506 328.325982 
" style="fill:none;stroke:#8c564b;stroke-linecap:square;stroke-opacity:0.8;stroke-width:0.95;"/>
   </g>
   <g id="line2d_37">
    <path clip-path="url(#pa648702af6)" d="M 472.198824 297.494296 
L 462.003314 324.778333 
L 444.571715 324.961998 
L 440.101848 350.578543 
" style="fill:none;stroke:#e377c2;stroke-linecap:square;stroke-opacity:0.8;stroke-width:0.95;"/>
   </g>
   <g id="line2d_38">
    <path clip-path="url(#pa648702af6)" d="M 632.912028 523.80922 
L 676.820339 511.348946 
L 699.90733 505.877639 
L 731.17883 526.515874 
" style="fill:none;stroke:#7f7f7f;stroke-linecap:square;stroke-opacity:0.8;stroke-width:0.95;"/>
   </g>
   <g id="line2d_39">
    <path clip-path="url(#pa648702af6)" d="M 473.823432 133.330909 
L 499.334161 182.804674 
L 527.409136 214.221191 
" style="fill:none;stroke:#bcbd22;stroke-linecap:square;stroke-opacity:0.8;stroke-width:0.95;"/>
   </g>
   <g id="line2d_40">
    <path clip-path="url(#pa648702af6)" d="M 723.003102 628.411723 
L 682.660145 586.332923 
" style="fill:none;stroke:#17becf;stroke-linecap:square;stroke-opacity:0.8;stroke-width:0.95;"/>
   </g>
   <g id="patch_3">
    <path d="M 144 756 
L 144 103.68 
" style="fill:none;stroke:#000000;stroke-linecap:square;stroke-linejoin:miter;stroke-width:0.8;"/>
   </g>
   <g id="patch_4">
    <path d="M 1036.8 756 
L 1036.8 103.68 
" style="fill:none;stroke:#000000;stroke-linecap:square;stroke-linejoin:miter;stroke-width:0.8;"/>
   </g>
   <g id="patch_5">
    <path d="M 144 756 
L 1036.8 756 
" style="fill:none;stroke:#000000;stroke-linecap:square;stroke-linejoin:miter;stroke-width:0.8;"/>
   </g>
   <g id="patch_6">
    <path d="M 144 103.68 
L 1036.8 103.68 
" style="fill:none;stroke:#000000;stroke-linecap:square;stroke-linejoin:miter;stroke-width:0.8;"/>
   </g>
  </g>
 </g>
 <defs>
  <clipPath id="pa648702af6">
   <rect height="652.32" width="892.8" x="144" y="103.68"/>
  </clipPath>
 </defs>
</svg>
